<?xml version="1.0"?>
<svg xmlns="http://www.w3.org/2000/svg" id="Capa_1" enable-background="new 0 0 512 512" height="512px" viewBox="0 0 512 512" width="512px"><g><g><circle cx="125" cy="265.002" r="55" data-original="#000000" class="active-path" data-old_color="#000000" fill="#D3D3D3"/><path d="m87.538 188.727c8.903-4.391 18.675-7.276 28.99-8.301l-61.601-153.995c-3.076-7.691-11.803-11.432-19.498-8.356-7.691 3.077-11.433 11.807-8.355 19.499z" data-original="#000000" class="active-path" data-old_color="#000000" fill="#D3D3D3"/><path d="m215.113 37.083c2.806-7.795-1.238-16.388-9.032-19.194-7.799-2.808-16.389 1.238-19.194 9.032l-55.212 153.368c10.335.807 20.156 3.462 29.131 7.649z" data-original="#000000" class="active-path" data-old_color="#000000" fill="#D3D3D3"/><path d="m467 17.002c-10.084 0-86.889 0-96 0-8.284 0-15 6.716-15 15s6.716 15 15 15h63v34h-63c-8.284 0-15 6.716-15 15s6.716 15 15 15h63v34h-63c-8.284 0-15 6.716-15 15s6.716 15 15 15h63v34h-63c-8.284 0-15 6.716-15 15s6.716 15 15 15h63v34h-63c-8.284 0-15 6.716-15 15s6.716 15 15 15h63v34h-63c-8.284 0-15 6.716-15 15s6.716 15 15 15h63v34h-63c-8.284 0-15 6.716-15 15s6.716 15 15 15h63v34h-63c-8.284 0-15 6.716-15 15s6.716 15 15 15h96c24.813 0 45-20.187 45-45v-388c0-24.813-20.187-45-45-45z" data-original="#000000" class="active-path" data-old_color="#000000" fill="#D3D3D3"/><path d="m103.859 395.263-14.863-7.863 14.464-40.17c-9.925-2.602-19.136-6.969-27.304-12.727l-13.95 38.741c-4.596-2.252-10.035-2.015-14.42.666l-40.611 24.833c-4.457 2.726-7.175 7.573-7.175 12.797v46.647c0 5.541 3.055 10.63 7.944 13.237l40.923 21.814c4.664 2.486 10.292 2.335 14.816-.4l41.077-24.833c4.509-2.726 7.257-7.618 7.239-12.886l-.155-46.647c-.018-5.54-3.088-10.619-7.985-13.209zm-48.402 67.493-25.457-13.57v-29.236l26.148-15.989 25.727 13.61.097 29.155z" data-original="#000000" class="active-path" data-old_color="#000000" fill="#D3D3D3"/><path d="m250.854 396.371-41.569-24c-4.563-2.635-10.175-2.681-14.78-.125l-1.021.567-16.314-40.776c-7.905 6.166-16.912 10.98-26.688 14.059l16.562 41.396-13.323 7.396c-4.844 2.689-7.811 7.828-7.718 13.367l.784 46.641c.089 5.269 2.935 10.104 7.498 12.738l41.569 24c4.492 2.594 10.104 2.721 14.78.125l40.785-22.641c4.844-2.689 7.811-7.828 7.718-13.367l-.785-46.641c-.089-5.269-2.936-10.105-7.498-12.739zm-47.355 65.036-26.859-15.507-.49-29.15 25.49-14.151 26.859 15.507.49 29.15z" data-original="#000000" class="active-path" data-old_color="#000000" fill="#D3D3D3"/></g></g> </svg>
